<svg xmlns="http://www.w3.org/2000/svg" viewBox="2545.9 971.2 471.0 585.3" width="60" height="80" preserveAspectRatio="xMidYMid meet">
  <g>
    <path fill="none" stroke="currentColor" stroke-width="14" stroke-linecap="round" stroke-linejoin="round" d="m 2732.286,1172.7146 c -49.839,-7.0662 -89.963,-26.773 -101.0829,-84.2185 -5.8792,-33.2616 13.3768,-52.2475 39.479,-67.3449"/>
    <path fill="none" stroke="currentColor" stroke-width="14" stroke-linecap="round" stroke-linejoin="round" d="m 2659.8815,1176.3524 c -9.2429,-12.0448 -6.148,-24.1219 -1.8189,-36.2023"/>
    <path fill="none" stroke="currentColor" stroke-width="14" stroke-linecap="round" stroke-linejoin="round" d="m 2822.7922,1228.6701 c 97.7577,13.9462 144.1224,64.3717 114.5266,168.7149 -31.1717,38.2934 -59.5112,79.4043 -112.4249,96.0693 -18.7488,-0.3888 -35.2121,1.4959 -46.4566,8.5723 -16.2328,4.4402 -34.8311,4.4102 -54.9257,1.5523 -37.8428,-20.0981 -88.7267,-3.3775 -110.0431,-70.1347 -17.5969,-53.4141 -14.5932,-100.4497 27.8149,-135.2846 83.8147,-70.0934 129.8833,-64.198 181.5088,-69.4895 z"/>
    <path fill="none" stroke="currentColor" stroke-width="14" stroke-linecap="round" stroke-linejoin="round" d="m 2798.8671,1235.775 c 12.3902,14.3733 23.91,27.8972 19.2856,43.381 5.3953,17.9199 5.38,23.1854 6.2582,29.7919 7.6607,14.232 8.234,17.893 8.5059,21.1045 -0.2558,24.6894 -4.4056,30.1706 -8.3548,36.6417 -11.158,32.6765 -0.9417,39.5669 5.7666,50.6893 6.797,11.0167 16.2943,5.5656 19.8141,36.568"/>
    <path fill="none" stroke="currentColor" stroke-width="14" stroke-linecap="round" stroke-linejoin="round" d="m 2790.5381,1282.2759 c -21.5248,18.4778 -28.1927,33.2001 -35.0858,47.9793"/>
    <path fill="none" stroke="currentColor" stroke-width="14" stroke-linecap="round" stroke-linejoin="round" d="m 2699.0629,1310.6845 c 19.7246,2.3905 39.4446,3.0111 59.1879,12.5211"/>
  </g>
</svg>