<svg xmlns="http://www.w3.org/2000/svg" viewBox="610.1 970.7 471.0 585.3" width="60" height="80" preserveAspectRatio="xMidYMid meet">
  <g>
    <path fill="none" stroke="currentColor" stroke-width="14" stroke-linecap="round" stroke-linejoin="round" d="m 894.70057,1172.2426 c 49.83904,-7.0662 89.96306,-26.773 101.0829,-84.2184 5.87923,-33.2617 -13.37672,-52.2476 -39.479,-67.345"/>
    <path fill="none" stroke="currentColor" stroke-width="14" stroke-linecap="round" stroke-linejoin="round" d="m 967.10509,1175.8804 c 9.24292,-12.0448 6.148,-24.1219 1.81892,-36.2022"/>
    <path fill="none" stroke="currentColor" stroke-width="14" stroke-linecap="round" stroke-linejoin="round" d="m 804.19437,1228.1981 c -97.75763,13.9462 -144.12238,64.3717 -114.52659,168.7149 31.17176,38.2934 59.5112,79.4043 112.42493,96.0693 18.74879,-0.3888 35.21213,1.496 46.45659,8.5723 16.23283,4.4402 34.8311,4.4102 54.9257,1.5523 37.84285,-20.0981 88.72667,-3.3775 110.0431,-70.1347 17.5969,-53.4141 14.5932,-100.4497 -27.81489,-135.2845 -83.81468,-70.0934 -129.88335,-64.1981 -181.50884,-69.4896 z"/>
    <path fill="none" stroke="currentColor" stroke-width="14" stroke-linecap="round" stroke-linejoin="round" d="m 828.11951,1235.3031 c -12.39018,14.3732 -23.91005,27.8971 -19.28556,43.3809 -5.3953,17.9199 -5.38007,23.1854 -6.2582,29.7919 -7.66073,14.232 -8.23404,17.893 -8.50599,21.1045 0.25586,24.6894 4.40569,30.1706 8.35481,36.6417 11.158,32.6765 0.94176,39.5669 -5.76653,50.6893 -6.797,11.0167 -16.29431,5.5657 -19.81411,36.568"/>
    <path fill="none" stroke="currentColor" stroke-width="14" stroke-linecap="round" stroke-linejoin="round" d="m 836.44851,1281.8039 c 21.52483,18.4779 28.19265,33.2001 35.08578,47.9793"/>
    <path fill="none" stroke="currentColor" stroke-width="14" stroke-linecap="round" stroke-linejoin="round" d="m 927.92374,1310.2125 c -19.72463,2.3906 -39.44463,3.0111 -59.18791,12.5211"/>
  </g>
</svg>