<svg xmlns="http://www.w3.org/2000/svg" viewBox="2573.6 1240.9 585.4 758.0" width="60" height="80" preserveAspectRatio="xMidYMid meet">
  <g>
    <path fill="none" stroke="currentColor" stroke-width="14" stroke-linecap="round" stroke-linejoin="round" d="m 2821.9774,1455.4336 c -9.0761,-9.2572 -25.7659,-23.0555 -53.6352,-43.5217"/>
    <path fill="none" stroke="currentColor" stroke-width="14" stroke-linecap="round" stroke-linejoin="round" d="m 2726.2142,1459.9097 c 47.4783,-16.4417 50.4939,-41.655 42.0727,-69.1245 5.0031,-44.2022 -12.9944,-69.9049 -25.6138,-99.9333"/>
    <path fill="none" stroke="currentColor" stroke-width="14" stroke-linecap="round" stroke-linejoin="round" d="m 2746.9164,1492.5049 c -37.3188,-25.3875 -87.1583,-4.1284 -103.6601,-80.7633 -2.9171,-24.4351 -19.6417,-53.2755 18.6789,-109.5321"/>
    <path fill="none" stroke="currentColor" stroke-width="14" stroke-linecap="round" stroke-linejoin="round" d="m 3020.7527,1525.336 c -99.0241,-85.9469 -172.0284,-36.3048 -245.0364,13.3176 -19.7155,24.4648 -39.0022,48.9286 -66.0052,73.4125 -82.6888,79.4673 -67.1354,133.3979 -19.25,178.9242 29.8454,33.1112 58.4288,65.5954 73.4789,91.3573 17.2493,17.7604 33.1081,31.3853 46.5782,37.9063 63.743,28.6227 88.0802,-11.2972 123.8622,-31.3103 128.5576,-67.7582 174.5957,-162.1446 141.5155,-282.0616 -3.6442,-46.2321 -25.3884,-69.0666 -55.1432,-81.546 z"/>
    <path fill="none" stroke="currentColor" stroke-width="14" stroke-linecap="round" stroke-linejoin="round" d="m 2820.7902,1539.944 c 9.6886,11.374 22.62,12.9339 25.4701,45.0039 -4.3796,32.8755 13.6768,65.6922 31.2439,98.5101 18.1663,17.6782 12.2691,65.5977 17.1631,99.9554 -17.796,16.9615 -35.6359,17.1522 -53.4804,15.6331 l -33.7252,29.6658"/>
    <path fill="none" stroke="currentColor" stroke-width="14" stroke-linecap="round" stroke-linejoin="round" d="m 3005.5326,1629.6015 c 20.7994,-96.421 -29.3917,-85.7501 -56.6254,-109.7112 -47.313,-11.3761 -86.9452,-39.0778 -166.1524,17.3364 -58.9914,82.0879 -41.3546,128.1713 -48.8089,186.0439 -3.6421,55.2561 12.9476,88.8389 35.4804,102.7244 5.6074,29.8063 4.2833,58.3302 53.7421,84.3666 42.0901,37.5297 71.6721,5.2489 102.7687,-18.5789 46.825,-12.5861 54.3465,-43.3508 53.296,-86.0554 95.2907,-41.4411 42.0067,-119.7015 26.2995,-176.1258 z"/>
    <path fill="none" stroke="currentColor" stroke-width="14" stroke-linecap="round" stroke-linejoin="round" d="m 2987.256,1642.3255 c -12.0742,13.0861 -21.0901,28.1996 -54.8593,26.9043 -19.2553,-2.4641 -38.5075,-3.7069 -57.7242,8.6018"/>
    <path fill="none" stroke="currentColor" stroke-width="14" stroke-linecap="round" stroke-linejoin="round" d="m 2774.6102,1654.1498 c 36.9006,6.3441 91.4425,3.8098 101.4708,23.6781"/>
  </g>
</svg>