<svg xmlns="http://www.w3.org/2000/svg" viewBox="1761.5 347.2 752.0 506.7" width="60" height="80" preserveAspectRatio="xMidYMid meet">
  <g>
    <path fill="none" stroke="currentColor" stroke-width="14" stroke-linecap="round" stroke-linejoin="round" d="m 2168.5985,555.22265 c -0.6515,6.0073 -35.7326,67.86537 -44.5769,95.80669 -11.959,30.16587 -31.0024,57.43634 -81.7089,71.76588 -41.4041,-5.08431 -83.3971,-6.17156 -118.2498,-55.7251 l -85.6853,-129.94853 -15.6255,-41.33855 c -11.2826,-29.84887 13.1515,-57.29546 36.0262,-69.06007 l 62.0259,-16.54175 c 36.2266,-2.32122 60.2722,-12.93929 131.0566,8.27762 l 66.4174,14.48134 c 24.1618,10.65479 56.427,6.48435 57.0544,60.19566 -1.2698,20.5305 6.7716,39.48407 -6.7341,62.08681 z"/>
    <path fill="none" stroke="currentColor" stroke-width="14" stroke-linecap="round" stroke-linejoin="round" d="m 2429.0847,608.85123 c -133.3836,-87.56135 -106.057,-62.00345 -163.1449,-81.46972 -19.899,-7.11186 -36.4171,-8.1753 -44.8139,5.28976 l -30.9531,31.11562 c -21.0352,26.43575 -19.6353,32.04799 -22.3054,41.43785 -9.909,81.74291 1.5425,80.7169 3.7507,115.50782 15.2528,29.61246 33.6734,56.04062 64.8377,69.65808 19.2324,13.56756 45.8659,12.2355 74.158,7.5645 l 46.5222,-11.32873 c 18.2406,2.74298 33.9563,-9.42237 49.948,-19.95842 33.7488,-23.69056 42.4715,-57.31568 54.0754,-89.79705 2.3344,-21.00907 -3.643,-39.61978 -17.388,-55.98915 z"/>
    <path fill="none" stroke="currentColor" stroke-width="14" stroke-linecap="round" stroke-linejoin="round" d="m 2242.075,631.75469 c -6.099,31.90391 -11.7816,64.63532 -29.1161,74.21441"/>
    <path fill="none" stroke="currentColor" stroke-width="14" stroke-linecap="round" stroke-linejoin="round" d="m 2105.0133,634.69973 15.1854,-126.76432 c -8.2366,0.0216 9.2676,-25.59095 -21.6487,-37.01242 -112.8983,-43.96557 -178.1438,-11.7383 -196.5578,-2.07163 -18.414,9.66668 -34.4001,36.10164 -30.8674,63.87414 3.5328,27.7725 11.2639,34.44183 16.5057,48.23281"/>
  </g>
</svg>