<svg xmlns="http://www.w3.org/2000/svg" viewBox="847.3 4246.3 1017.8 733.9" width="60" height="80" preserveAspectRatio="xMidYMid meet">
  <g transform="scale(1,-1) translate(0,-9226.6)">
    <path fill="none" stroke="currentColor" stroke-width="14" stroke-linecap="round" stroke-linejoin="round" d="m 938.92934,4364.6107 c -33.55984,46.2765 -41.61371,79.4741 -38.21076,106.7969 10.0392,47.5391 15.23438,98.5575 65.21008,117.4125 79.75484,26.5724 96.92204,4.5195 129.32574,-5.696 37.0786,-18.0279 66.236,-40.6098 87.2469,-67.8752 16.1582,-11.1647 14.9508,-22.3748 15.6052,-33.58 -2.4957,-20.817 1.9828,-34.8706 3.5837,-51.7149 2.4404,-32.671 -11.6624,-55.4749 -19.6131,-81.9482 -23.5156,-19.1476 -40.7452,-45.4412 -79.186,-47.6213 l -66.3745,-1.8979 c -40.88605,-2.1426 -68.77546,33.3254 -97.58726,66.1241 z"/>
    <path fill="none" stroke="currentColor" stroke-width="14" stroke-linecap="round" stroke-linejoin="round" d="m 956.14583,4374.1385 c 11.85848,16.6764 26.57651,36.3083 34.36077,46.6419 4.18245,7.3794 0.65413,12.5773 1.66094,24.1423 -4.98618,30.0185 4.32248,28.0745 12.84076,34.5165 8.6923,6.7408 17.6132,13.0274 24.0746,24.2011 7.4145,22.416 17.9461,17.4321 27.532,20.7618 l 39.6369,7.0003 c 31.4463,9.4664 36.3912,-5.0371 53.4639,-5.8945"/>
    <path fill="none" stroke="currentColor" stroke-width="14" stroke-linecap="round" stroke-linejoin="round" d="m 1043.122,4409.7112 c 7.2005,-22.1077 27.4576,-44.1812 62.2425,-66.2166 -13.4721,4.7005 -26.9088,9.5081 -44.8297,0.7447 -21.243,-10.412 -31.365,1.564 -43.9879,8.5056"/>
    <path fill="none" stroke="currentColor" stroke-width="14" stroke-linecap="round" stroke-linejoin="round" d="m 1140.3639,4475.4832 c 2.0667,11.4465 -5.3603,24.2239 11.1188,33.6499"/>
    <path fill="none" stroke="currentColor" stroke-width="14" stroke-linecap="round" stroke-linejoin="round" d="m 1054.9855,4488.1908 73.5058,-87.7389 c 15.4457,-18.6658 27.2614,-23.1831 28.4121,13.8675"/>
    <path fill="none" stroke="currentColor" stroke-width="14" stroke-linecap="round" stroke-linejoin="round" d="m 1220.4051,4525.693 c 57.6851,-8.1057 108.1745,-8.3717 118.0106,35.6539 l 29.0845,86.2833 c 20.9095,65.764 -1.0445,52.4531 -4.5022,73.2643 l -43.2364,50.7491 c -16.5229,16.7261 -34.3263,32.5507 -73.3636,33.4287 -57.2353,-2.1167 -115.1473,-3.0229 -127.3624,-85.6785 l -4.9196,-96.565 c 11.8691,-46.1415 24.8607,-91.6274 106.2891,-97.1358 z"/>
    <path fill="none" stroke="currentColor" stroke-width="14" stroke-linecap="round" stroke-linejoin="round" d="m 1185.7216,4602.3266 c 4.8328,-21.5009 20.658,-37.8934 55.2919,-45.5451"/>
    <path fill="none" stroke="currentColor" stroke-width="14" stroke-linecap="round" stroke-linejoin="round" d="m 1149.5126,4603.0938 c 16.9644,53.7351 27.5867,115.3556 79.8449,125.2095 40.6394,18.5326 82.192,48.3802 116.4128,-12.6263"/>
    <path fill="none" stroke="currentColor" stroke-width="14" stroke-linecap="round" stroke-linejoin="round" d="m 1203.6986,4650.6496 c 11.7523,11.2108 23.5579,2.0862 35.4305,-32.6659 6.1749,-26.4234 17.1202,-33.5502 27.6967,-42.169"/>
    <path fill="none" stroke="currentColor" stroke-width="14" stroke-linecap="round" stroke-linejoin="round" d="m 1527.8039,4663.5672 c -16.3825,-45.7515 -56.388,-46.2753 -83.5572,-24.3568 l -38.9217,49.0362 -45.8046,43.8457 c -6.6605,20.5222 -24.5782,19.2569 -3.692,93.0941 12.5601,39.939 37.8212,57.7856 68.7938,65.6976 39.7214,11.4072 73.7303,4.0746 104.3483,-14.382 20.8717,-21.5036 53.9095,-31.6507 45.0396,-80.9169 -8.853,-22.1555 -9.2739,-27.336 -28.2653,-69.9018 -5.9806,-20.6137 -11.9885,-30.7747 -17.9409,-62.1161 z"/>
    <path fill="none" stroke="currentColor" stroke-width="14" stroke-linecap="round" stroke-linejoin="round" d="m 1438.0926,4684.8841 c -22.0731,32.1262 -83.2827,64.15 -14.0459,96.5153"/>
    <path fill="none" stroke="currentColor" stroke-width="14" stroke-linecap="round" stroke-linejoin="round" d="m 1326.8815,4686.3171 c -20.6596,12.2825 -42.1377,26.6968 -44.8071,-7.876 -3.7465,-36.0346 11.8297,-52.6452 18.3088,-78.4006"/>
    <path fill="none" stroke="currentColor" stroke-width="14" stroke-linecap="round" stroke-linejoin="round" d="m 1489.7285,4718.6401 15.3231,74.1783 c 9.964,35.7078 20.06,21.0051 30.1723,0.079"/>
    <path fill="none" stroke="currentColor" stroke-width="14" stroke-linecap="round" stroke-linejoin="round" d="m 1627.623,4732.7942 c -12.9913,28.541 -22.1962,60.1273 -45.8994,80.0526 -10.6345,10.6556 -19.7891,24.2905 -7.9685,80.1518 12.269,23.2736 33.2751,36.8902 66.282,37.2426 26.6221,-5.0044 49.5393,-12.1387 91.4016,-8.3814 20.1557,-4.8702 38.5267,1.6612 63.0121,-30.8696 8.0863,-15.3634 20.6812,-25.148 0.1986,-75.8619 l -62.7119,-83.7851 c -17.0145,-12.6719 -18.8755,-32.1839 -58.5302,-34.6361 -31.0087,0.9444 -36.8234,19.6231 -45.7843,36.0871 z"/>
    <path fill="none" stroke="currentColor" stroke-width="14" stroke-linecap="round" stroke-linejoin="round" d="m 1359.4821,4746.7475 c 1.5757,26.1844 -0.8647,54.9358 31.7362,61.2902 27.7226,9.5553 62.5015,19.1292 73.2011,28.64 45.888,25.3423 50.1679,12.0749 68.9337,12.2495"/>
  </g>
</svg>