<svg xmlns="http://www.w3.org/2000/svg" viewBox="2598.2 3142.1 572.1 1000.1" width="60" height="80" preserveAspectRatio="xMidYMid meet">
  <g transform="scale(1,-1) translate(0,-7284.2)">
    <path fill="none" stroke="currentColor" stroke-width="14" stroke-linecap="round" stroke-linejoin="round" d="m 2884.1297,3523.1872 c 9.5711,-20.7871 20.473,-40.9132 48.1381,-52.7125 3.8175,-11.7678 16.8046,-16.4422 41.3475,-12.1772"/>
    <path fill="none" stroke="currentColor" stroke-width="14" stroke-linecap="round" stroke-linejoin="round" d="m 2961.9098,3597.1217 c -14.5274,-6.9312 -14.6884,-19.0357 -58.6612,-15.3637 -10.6358,-1.3773 -21.2685,-1.5802 -31.9393,-16.2958 l -23.3141,-14.5941 -19.8727,-17.1895 c -15.5059,-16.8558 -19.1018,-35.0665 -13.9352,-54.274 2.724,-21.309 7.0793,-47.0028 3.3151,-50.8709 -2.0472,-13.2116 2.0305,-34.6345 6.7476,-56.9144 -2.1644,-28.7559 -22.5625,-24.7504 4.0349,-105.1834 1.7323,-17.1466 10.7965,-25.9155 27.5185,-25.9342 13.6094,-2.6793 17.2667,-8.9504 34.4239,-22.504 12.1935,-7.2158 18.4998,-14.4163 45.6331,-21.6712 20.6966,2.6219 41.3683,-4.259 62.1026,12.7685 l 36.2925,32.6637 c 29.2615,24.254 32.3952,37.7016 34.6158,50.7716 8.1316,19.519 4.9553,39.0676 1.8776,58.616 -0.6887,16.6605 -6.424,30.4548 -23.1765,37.9918 8.0463,9.5862 17.0756,14.189 20.8092,45.6353 8.5892,54.6075 -4.6169,68.605 -13.556,90.5531 -17.4624,25.3767 -34.9412,44.4883 -52.4145,65.6547"/>
    <path fill="none" stroke="currentColor" stroke-width="14" stroke-linecap="round" stroke-linejoin="round" d="m 2826.6286,3621.6139 c -20.1324,-6.2601 -42.2609,5.8837 -64.6031,19.9968 l -30.082,34.5616 c -21.1948,20.1705 -30.0812,40.3088 -28.2902,60.4191 1.9262,35.0526 -7.4049,70.1346 -30.759,105.2533 -14.9394,43.0933 -24.6931,84.7316 1.1667,116.3767 15.7925,28.7293 34.9863,56.0878 73.4742,75.6699 40.243,16.5996 75.7223,39.1857 124.2572,45.3645 31.724,2.4545 57.4875,12.9 108.5932,-10.6291 l 69.7055,-46.7344 c 11.7358,-8.5918 22.9145,-13.4018 41.2054,-66.4874 5.9841,-49.3235 28.9565,-96.5687 1.3314,-150.004 l -44.2317,-101.6087 c -20.9137,-26.1166 -34.7968,-54.8105 -79.4996,-72.2059 -26.0548,-8.4072 -43.5462,-21.5145 -93.1483,-16.9976 z"/>
    <path fill="none" stroke="currentColor" stroke-width="14" stroke-linecap="round" stroke-linejoin="round" d="m 2756.0656,3670.0747 c -10.6318,22.1543 -27.187,44.3242 -27.4124,66.4513 -5.3711,44.6558 -19.8297,75.7573 -34.2028,106.9864 -8.4017,21.7718 -21.4326,37.9158 -10.1258,83.6475 8.0248,28.683 15.4958,57.6262 57.0814,70.5405 l 71.635,31.7091 c 20.4078,9.6026 48.1104,8.2006 77.5972,4.1072 28.7087,-10.3178 57.4456,-9.8725 86.0757,-50.2255 6.1615,-12.0555 9.7793,-29.1651 6.7408,-59.5006"/>
    <path fill="none" stroke="currentColor" stroke-width="14" stroke-linecap="round" stroke-linejoin="round" d="m 2831.9409,3675.0484 c 10.2552,25.8941 16.5535,50.2878 41.5936,81.788 -10.1864,33.711 -24.7565,45.7982 -39.5061,57.0002 -3.6766,9.5172 -9.6289,4.8623 -6.7521,55.1902 -3.6083,48.2866 -35.0766,64.9008 -53.1953,96.6914"/>
    <path fill="none" stroke="currentColor" stroke-width="14" stroke-linecap="round" stroke-linejoin="round" d="m 2979.4603,3715.1796 c -24.5979,29.0842 -58.277,45.5248 -105.9236,42.5188"/>
    <path fill="none" stroke="currentColor" stroke-width="14" stroke-linecap="round" stroke-linejoin="round" d="m 2791.5773,3733.775 c 21.4002,24.1177 42.6239,48.2888 41.5868,79.2017"/>
    <path fill="none" stroke="currentColor" stroke-width="14" stroke-linecap="round" stroke-linejoin="round" d="m 2738.2759,3789.9492 c 26.6166,41.0548 58.9577,38.3016 89.779,47.1789"/>
  </g>
</svg>