<svg xmlns="http://www.w3.org/2000/svg" viewBox="2537.5 3982.7 421.2 422.0" width="60" height="80" preserveAspectRatio="xMidYMid meet">
  <g transform="scale(1,-1) translate(0,-8387.3)">
    <path fill="none" stroke="currentColor" stroke-width="14" stroke-linecap="round" stroke-linejoin="round" d="m 2752.7844,4063.188 c 18.4302,3.7066 40.7514,6.4503 48.3998,47.2873 -0.1565,17.7603 5.5443,31.5936 12.1863,44.7958 8.0215,42.5836 -12.9335,70.7736 -31.6347,100.0832 -14.5199,24.5049 -32.4894,26.9555 -49.914,32.8894 -19.0033,10.044 -33.2604,3.31 -43.153,-18.8526 -6.0507,-12.649 -7.3022,-31.3294 -21.6397,-33.5642 -6.4761,-11.423 -7.3336,-20.9895 -6.9755,-30.1542 8.1532,-15.3074 1.5443,-36.4747 -1.0087,-56.0321 33.4589,-1.6818 41.6827,-28.467 45.5337,-59.6021 15.5678,-5.8959 30.5071,-7.9595 48.2058,-26.8505 z"/>
    <path fill="none" stroke="currentColor" stroke-width="14" stroke-linecap="round" stroke-linejoin="round" d="m 2673.4811,4065.9819 c -84.6296,42.063 -83.3965,64.6805 -85.9539,96.7771 6.4067,38.4417 4.6963,52.7427 4.4977,71.5401 -1.1438,39.517 23.4696,49.9038 38.978,70.5879 49.7329,49.7603 76.2274,33.6785 111.3171,41.9501 32.2683,-4.9696 51.9309,-9.9061 70.6511,-14.8402 52.6222,-12.7728 48.0235,-32.5462 67.9745,-49.316 25.5794,-34.3251 27.8281,-78.1855 14.3189,-128.4863 -11.0784,-29.9237 -33.5609,-52.3026 -57.0905,-73.9887 l -57.8351,-29.159 c -44.4,-18.3588 -95.2667,6.8433 -106.8578,14.935 z"/>
    <path fill="none" stroke="currentColor" stroke-width="14" stroke-linecap="round" stroke-linejoin="round" d="m 2724.4016,4088.2624 -2.523,24.1446"/>
  </g>
</svg>