<svg xmlns="http://www.w3.org/2000/svg" viewBox="400.8 1735.8 557.0 635.6" width="60" height="80" preserveAspectRatio="xMidYMid meet">
  <g>
    <path fill="none" stroke="currentColor" stroke-width="14" stroke-linecap="round" stroke-linejoin="round" d="m 660.44798,1798.2463 c 37.57689,17.0061 53.49539,-0.8439 73.27237,-12.4843"/>
    <path fill="none" stroke="currentColor" stroke-width="14" stroke-linecap="round" stroke-linejoin="round" d="m 691.29736,1850.4399 17.03778,-52.0682"/>
    <path fill="none" stroke="currentColor" stroke-width="14" stroke-linecap="round" stroke-linejoin="round" d="m 653.04439,1936.2556 c 5.37479,11.7512 10.6005,23.502 19.62606,35.2627 10.02215,7.4989 14.25647,23.6304 16.79073,42.2977"/>
    <path fill="none" stroke="currentColor" stroke-width="14" stroke-linecap="round" stroke-linejoin="round" d="m 530.47641,1948.6108 c 54.62714,-118.082 144.011,-24.2032 230.84501,54.1256 17.76941,21.3551 40.33078,34.7707 47.69542,73.3646 26.76522,68.0498 -39.60682,106.8047 -70.82421,153.3362 -31.21739,46.5315 -63.44904,69.7361 -119.85433,51.7991 -131.90443,-48.6206 -136.94434,-112.3756 -116.43272,-179.1787 -41.6553,-98.8742 -13.43995,-104.0777 -2.47029,-132.4013 10.34362,-5.7086 20.67936,-8.4043 31.04112,-21.0455 z"/>
    <path fill="none" stroke="currentColor" stroke-width="14" stroke-linecap="round" stroke-linejoin="round" d="m 552.98205,1959.9373 c 18.95757,0.8084 37.95014,1.5819 42.20913,17.012 24.01717,17.7701 48.10625,35.5935 74.50382,55.1248"/>
    <path fill="none" stroke="currentColor" stroke-width="14" stroke-linecap="round" stroke-linejoin="round" d="m 740.19104,2004.0896 c -13.26543,7.2095 -22.83071,7.0669 -32.41269,6.9574 -25.58952,-3.7984 -36.34293,9.8041 -39.52129,32.291 -0.33993,14.1392 3.43625,29.6624 -18.40567,36.5717 -18.8205,17.1639 -9.43146,25.0066 -7.13441,35.1927 -0.51132,15.9821 -1.00889,26.7081 -1.50063,35.2074 -0.43176,57.3696 15.28302,56.1398 25.15291,76.1225 5.94688,6.4783 13.29802,12.4927 8.39168,22.5572 l 11.24176,9.8887"/>
    <path fill="none" stroke="currentColor" stroke-width="14" stroke-linecap="round" stroke-linejoin="round" d="m 517.43536,2088.0137 54.91095,7.1861 c 20.65489,8.9116 42.29138,14.904 70.41861,1.5928"/>
    <path fill="none" stroke="currentColor" stroke-width="14" stroke-linecap="round" stroke-linejoin="round" d="m 470.91977,2101.9765 c -20.15866,-27.6241 -17.52235,-67.8341 -3.92667,-114.0952 51.87952,-118.8306 145.08271,-144.4413 290.27997,-52.7613 45.54415,18.3844 81.64947,53.7355 105.40114,89.0086 23.36432,34.6979 45.05671,51.4003 33.50772,112.7642 -26.66532,103.3669 -72.7243,184.4521 -203.25868,168.4825 -51.8651,-6.3091 -97.6669,7.2725 -163.26542,-44.0895 -25.39325,-42.0306 -74.32561,-39.2311 -58.73806,-159.3093 z"/>
    <path fill="none" stroke="currentColor" stroke-width="14" stroke-linecap="round" stroke-linejoin="round" d="m 642.70223,2120.7362 29.58474,-2.7395 c 13.12189,9.051 26.25338,14.4364 39.38486,19.8215"/>
  </g>
</svg>