<svg xmlns="http://www.w3.org/2000/svg" viewBox="349.0 2155.9 564.6 583.6" width="60" height="80" preserveAspectRatio="xMidYMid meet">
  <g>
    <path fill="none" stroke="currentColor" stroke-width="14" stroke-linecap="round" stroke-linejoin="round" d="m 625.43584,2260.1281 14.11764,-12.6392 c -3.90938,-36.1387 3.26065,-41.5588 14.18033,-36.5827"/>
    <path fill="none" stroke="currentColor" stroke-width="14" stroke-linecap="round" stroke-linejoin="round" d="m 624.38349,2303.4353 c 57.48399,5.2531 109.322,18.9307 144.2348,50.3778 49.84168,25.7602 81.64091,52.7618 79.0106,82.132 15.95348,44.7675 3.53668,77.2882 -5.8074,111.1354 l -26.55401,55.5645 c -16.79618,32.3393 -51.50655,53.8661 -105.8006,63.573 -63.91684,10.5949 -127.83922,23.3026 -191.63313,-13.0604 -72.63014,-27.0928 -76.08634,-65.5285 -83.06295,-103.3869 -21.43564,-38.8354 -35.78767,-85.5981 -27.28615,-157.9358 7.53265,-33.0664 17.10599,-75.103 63.97953,-94.3164 46.87354,-19.2134 88.90275,-9.2449 152.91931,5.9168 z"/>
    <path fill="none" stroke="currentColor" stroke-width="14" stroke-linecap="round" stroke-linejoin="round" d="m 453.33627,2362.4947 c -53.36593,75.7374 -16.80167,109.1032 5.24293,149.3101 -5.99893,68.1628 -4.20564,120.5674 41.9547,114.1947 68.05513,48.4926 117.68724,22.4645 171.79352,14.5343 7.76002,-12.313 8.25266,-28.2836 29.66586,-33.7253 0,0 47.65663,-102.223 53.83068,-118.1693 6.17405,-15.9463 11.15407,-45.5109 -20.92389,-77.5198 0,0 -49.63007,-51.8636 -81.51655,-66.4108 -15.1677,-6.9199 -33.02827,-4.8333 -49.27349,-8.5798 -33.30472,-7.6807 -98.51746,-28.427 -98.51746,-28.427 -31.24699,-6.9064 -50.68048,9.278 -52.2563,54.7929 z"/>
    <path fill="none" stroke="currentColor" stroke-width="14" stroke-linecap="round" stroke-linejoin="round" d="m 602.18046,2373.881 c 5.09575,12.6051 7.81212,24.728 -1.15682,34.4819"/>
    <path fill="none" stroke="currentColor" stroke-width="14" stroke-linecap="round" stroke-linejoin="round" d="m 651.85339,2391.1836 c -22.45009,6.6093 -50.96256,12.192 -52.17149,22.3987"/>
  </g>
</svg>