<svg xmlns="http://www.w3.org/2000/svg" viewBox="387.8 2735.2 509.4 962.1" width="60" height="80" preserveAspectRatio="xMidYMid meet">
  <g transform="scale(1,-1) translate(0,-6432.4)">
    <path fill="none" stroke="currentColor" stroke-width="14" stroke-linecap="round" stroke-linejoin="round" d="m 474.19252,3078.0448 c -5.34811,-37.4434 -29.28136,-41.0252 -10.02206,-123.3026 10.03291,-58.7031 38.80784,-107.1908 103.80451,-135.9356 39.34404,-5.601 75.20338,-33.6533 120.68924,0.316 13.25756,11.5873 23.13475,17.7637 31.83776,22.4972 18.08064,18.8234 53.22468,19.9358 70.45019,91.5641 -0.0153,27.2957 -6.67175,37.8615 5.78169,96.5672 3.94763,22.6219 15.43417,36.8072 2.38082,78.4548 -14.06757,19.2616 -12.79667,39.6593 -56.18325,56.7496 -11.90688,10.9977 -106.51418,21.3761 -137.12266,20.3307 -30.60848,-1.0453 -29.08532,9.4074 -75.77153,-34.6812 -18.51546,-23.3739 -35.33153,-32.8573 -55.84471,-72.5602 z"/>
    <path fill="none" stroke="currentColor" stroke-width="14" stroke-linecap="round" stroke-linejoin="round" d="m 643.14391,3083.6595 c 16.1056,-2.4766 28.15913,-10.6577 32.83524,-29.2245"/>
    <path fill="none" stroke="currentColor" stroke-width="14" stroke-linecap="round" stroke-linejoin="round" d="m 680.91909,3143.2414 c 13.62093,-0.4232 26.49391,0.7307 42.25252,-4.1998 22.52109,-25.1572 30.59892,-25.1915 44.92222,-36.0894 2.69461,-0.8148 31.07865,-30.3741 10.54114,-74.9727 -11.34052,-22.8215 -14.09221,-30.7058 -9.35859,-47.4384 -11.13443,-39.0179 -5.09726,-47.8021 -7.57128,-71.5718"/>
    <path fill="none" stroke="currentColor" stroke-width="14" stroke-linecap="round" stroke-linejoin="round" d="m 594.58836,3190.4293 c -32.14109,14.9401 -64.94859,24.433 -94.97621,56.6481 -24.86434,19.5811 -43.36449,54.8361 -47.74088,124.8754 -2.08724,49.2471 -14.02251,97.2369 18.57049,150.9113 27.98329,23.5895 10.84062,31.6183 86.88135,71.7794 39.17291,16.4108 67.29336,52.594 127.50452,31.3684 29.12725,-8.2492 38.96451,-4.993 88.86051,-25.6295 21.14018,-4.8161 38.6515,-16.9377 48.39305,-44.7011 10.49192,-17.9633 19.25904,-42.9033 25.20755,-79.2446 -2.04265,-31.396 -6.77458,-44.3127 -11.04888,-60.374 -6.83493,-42.2141 -4.27141,-59.7999 0.18958,-72.4135 0.46203,-21.2633 -3.77566,-42.5388 -17.07431,-63.838 -6.98465,-23.0183 -11.58292,-44.7855 -52.40322,-69.9651 -37.16919,-27.9418 -61.2924,-48.9559 -172.36355,-19.4168 z"/>
    <path fill="none" stroke="currentColor" stroke-width="14" stroke-linecap="round" stroke-linejoin="round" d="m 654.8066,3238.863 c 11.14464,21.8683 25.09393,43.744 23.10426,65.5779"/>
    <path fill="none" stroke="currentColor" stroke-width="14" stroke-linecap="round" stroke-linejoin="round" d="m 713.39097,3252.8095 c -15.71946,10.7174 -28.04451,27.4113 -34.62482,54.2199 2.82789,20.9661 7.68379,37.9025 12.78881,54.344 4.29835,22.6759 16.1501,21.4013 10.14393,76.751 -10.77002,10.4492 -13.43327,18.2198 -10.40799,24.1107 19.47247,41.4901 12.68398,78.1344 -18.39227,110.2971"/>
    <path fill="none" stroke="currentColor" stroke-width="14" stroke-linecap="round" stroke-linejoin="round" d="m 617.6046,3289.6278 c 28.08485,5.5333 47.71759,11.0445 62.02587,16.5418"/>
    <path fill="none" stroke="currentColor" stroke-width="14" stroke-linecap="round" stroke-linejoin="round" d="m 786.35965,3370.2423 -42.29991,22.3032"/>
    <path fill="none" stroke="currentColor" stroke-width="14" stroke-linecap="round" stroke-linejoin="round" d="m 613.90808,3384.4461 c 39.14239,-3.2572 73.52774,-3.7561 85.32197,8.8441"/>
    <path fill="none" stroke="currentColor" stroke-width="14" stroke-linecap="round" stroke-linejoin="round" d="m 797.4672,3408.2026 c -30.62243,-8.5033 -51.77315,-25.2506 -99.08794,-19.225"/>
  </g>
</svg>