<svg xmlns="http://www.w3.org/2000/svg" viewBox="2343.1 630.4 542.2 658.1" width="60" height="80" preserveAspectRatio="xMidYMid meet">
  <g>
    <path fill="none" stroke="currentColor" stroke-width="14" stroke-linecap="round" stroke-linejoin="round" d="m 2539.2735,878.39127 c -71.1713,86.13192 -23.9636,73.39337 52.6808,36.0691"/>
    <path fill="none" stroke="currentColor" stroke-width="14" stroke-linecap="round" stroke-linejoin="round" d="m 2630.7156,902.28989 c -2.5682,-58.38743 -7.4764,-113.78079 -34.8505,-140.42649 -27.0868,-28.37645 -61.9381,-48.94777 -109.6313,-56.60973"/>
    <path fill="none" stroke="currentColor" stroke-width="14" stroke-linecap="round" stroke-linejoin="round" d="m 2743.7862,955.44233 c 81.5943,28.41482 86.9583,67.62067 87.3508,107.53027 4.1507,175.5425 -144.8627,172.5709 -173.7221,159.0761 -45.4033,5.6227 -76.9366,0.3992 -101.7508,-10.0785 -46.3335,-3.5547 -68.651,-31.2515 -76.0559,-73.9391 -6.7825,-22.9142 -9.0947,-48.0782 2.3763,-80.1789 8.3857,-17.9293 2.6833,-35.1172 54.1657,-55.3144 54.2861,-5.98354 71.4704,-19.75253 93.8749,-34.72864 32.2277,-34.97281 72.3166,-27.34302 113.7611,-12.36683 z"/>
    <path fill="none" stroke="currentColor" stroke-width="14" stroke-linecap="round" stroke-linejoin="round" d="m 2666.2003,955.64545 c -0.3668,8.62167 -6.6303,17.25879 14.7228,25.82361 36.9784,29.98444 34.4753,52.17994 26.0538,73.20794 -17.121,32.5286 -11.0156,47.9309 6.1789,55.1564 53.3283,51.7257 41.1816,62.3382 55.407,89.5104"/>
    <path fill="none" stroke="currentColor" stroke-width="14" stroke-linecap="round" stroke-linejoin="round" d="m 2597.2553,963.58459 c 54.0455,-18.03069 79.3547,-51.01802 85.0985,-94.18863 6.6773,-42.21018 -0.6959,-83.37978 -26.1847,-123.20773 -22.2889,-62.02568 -44.4064,-58.59101 -66.5438,-62.75704 -19.7474,2.49038 -37.6952,1.35802 -55.1745,-0.71762 -52.834,-2.34103 -72.5151,21.61881 -85.2475,37.29227 -44.5828,59.69905 -39.6605,94.48329 -50.503,137.20165 -5.5775,47.16842 -3.1173,87.49959 20.9762,109.42822 73.3066,54.82809 85.7676,27.96255 116.4466,25.5573 57.13,-24.06183 42.4358,-19.73664 61.1322,-28.60842 z"/>
    <path fill="none" stroke="currentColor" stroke-width="14" stroke-linecap="round" stroke-linejoin="round" d="m 2531.0162,1017.2065 c -15.9666,35.6213 -0.074,64.8017 -3.2113,90.5259 -2.9741,35.8594 7.6638,66.3841 45.9152,86.087 23.5207,13.2456 52.0628,15.9479 77.6333,17.9003"/>
    <path fill="none" stroke="currentColor" stroke-width="14" stroke-linecap="round" stroke-linejoin="round" d="m 2606.0294,1022.1825 c 22.7375,20.9083 25.0331,31.6625 25.1083,41.3137"/>
    <path fill="none" stroke="currentColor" stroke-width="14" stroke-linecap="round" stroke-linejoin="round" d="m 2551.7599,1037.8419 c 65.132,6.5321 86.0838,23.2468 77.701,43.7622 0.1753,54.1233 -16.9897,41.2801 -29.1567,58.6973"/>
  </g>
</svg>