<svg xmlns="http://www.w3.org/2000/svg" viewBox="2729.7 2735.6 509.4 962.1" width="60" height="80" preserveAspectRatio="xMidYMid meet">
  <g transform="scale(1,-1) translate(0,-6433.3)">
    <path fill="none" stroke="currentColor" stroke-width="14" stroke-linecap="round" stroke-linejoin="round" d="m 3152.7941,3078.5168 c 5.3481,-37.4434 29.2813,-41.0252 10.022,-123.3026 -10.0329,-58.7031 -38.8078,-107.1908 -103.8045,-135.9356 -39.344,-5.601 -75.2033,-33.6533 -120.6892,0.316 -13.2576,11.5873 -23.1348,17.7637 -31.8378,22.4972 -18.0806,18.8234 -53.2247,19.9358 -70.4502,91.5641 0.015,27.2957 6.6718,37.8615 -5.7816,96.5672 -3.9477,22.6219 -15.4342,36.8072 -2.3809,78.4547 14.0676,19.2617 12.7967,39.6594 56.1833,56.7497 11.9069,10.9977 106.5142,21.3761 137.1226,20.3307 30.6085,-1.0453 29.0854,9.4074 75.7716,-34.6812 18.5154,-23.3739 35.3315,-32.8573 55.8447,-72.5602 z"/>
    <path fill="none" stroke="currentColor" stroke-width="14" stroke-linecap="round" stroke-linejoin="round" d="m 2983.8427,3084.1315 c -16.1056,-2.4766 -28.1591,-10.6577 -32.8353,-29.2245"/>
    <path fill="none" stroke="currentColor" stroke-width="14" stroke-linecap="round" stroke-linejoin="round" d="m 2946.0675,3143.7134 c -13.6209,-0.4232 -26.4939,0.7307 -42.2525,-4.1998 -22.5211,-25.1572 -30.5989,-25.1915 -44.9222,-36.0894 -2.6946,-0.8148 -31.0787,-30.3741 -10.5412,-74.9727 11.3406,-22.8215 14.0922,-30.7058 9.3586,-47.4384 11.1345,-39.018 5.0973,-47.8021 7.5713,-71.5718"/>
    <path fill="none" stroke="currentColor" stroke-width="14" stroke-linecap="round" stroke-linejoin="round" d="m 3032.3982,3190.9013 c 32.1411,14.94 64.9486,24.433 94.9763,56.6481 24.8643,19.5811 43.3644,54.8361 47.7408,124.8754 2.0873,49.2471 14.0225,97.2369 -18.5705,150.9112 -27.9832,23.5896 -10.8406,31.6184 -86.8813,71.7795 -39.1729,16.4108 -67.2934,52.594 -127.5045,31.3684 -29.1273,-8.2492 -38.9645,-4.993 -88.8605,-25.6296 -21.1402,-4.8161 -38.6515,-16.9376 -48.3931,-44.701 -10.4919,-17.9633 -19.259,-42.9033 -25.2075,-79.2446 2.0426,-31.396 6.7745,-44.3127 11.0488,-60.374 6.835,-42.2141 4.2715,-59.7999 -0.1895,-72.4135 -0.4621,-21.2633 3.7756,-42.5388 17.0743,-63.8381 6.9846,-23.0182 11.5829,-44.7854 52.4032,-69.965 37.1692,-27.9418 61.2924,-48.956 172.3635,-19.4168 z"/>
    <path fill="none" stroke="currentColor" stroke-width="14" stroke-linecap="round" stroke-linejoin="round" d="m 2972.18,3239.335 c -11.1446,21.8683 -25.0939,43.744 -23.1043,65.5779"/>
    <path fill="none" stroke="currentColor" stroke-width="14" stroke-linecap="round" stroke-linejoin="round" d="m 2913.5956,3253.2815 c 15.7195,10.7174 28.0445,27.4113 34.6249,54.2199 -2.8279,20.9661 -7.6838,37.9025 -12.7889,54.344 -4.2983,22.6759 -16.1501,21.4013 -10.1439,76.751 10.77,10.4492 13.4333,18.2198 10.408,24.1107 -19.4725,41.4901 -12.684,78.1344 18.3923,110.2971"/>
    <path fill="none" stroke="currentColor" stroke-width="14" stroke-linecap="round" stroke-linejoin="round" d="m 3009.382,3290.0998 c -28.0848,5.5333 -47.7176,11.0445 -62.0259,16.5418"/>
    <path fill="none" stroke="currentColor" stroke-width="14" stroke-linecap="round" stroke-linejoin="round" d="m 2840.627,3370.7143 42.2999,22.3031"/>
    <path fill="none" stroke="currentColor" stroke-width="14" stroke-linecap="round" stroke-linejoin="round" d="m 3013.0785,3384.9181 c -39.1424,-3.2572 -73.5277,-3.7561 -85.3219,8.8441"/>
    <path fill="none" stroke="currentColor" stroke-width="14" stroke-linecap="round" stroke-linejoin="round" d="m 2829.5194,3408.6746 c 30.6224,-8.5033 51.7731,-25.2506 99.0879,-19.225"/>
  </g>
</svg>