<svg xmlns="http://www.w3.org/2000/svg" viewBox="468.0 1240.4 585.4 758.0" width="60" height="80" preserveAspectRatio="xMidYMid meet">
  <g>
    <path fill="none" stroke="currentColor" stroke-width="14" stroke-linecap="round" stroke-linejoin="round" d="m 805.00916,1454.9616 c 9.07613,-9.2571 25.76599,-23.0555 53.63525,-43.5217"/>
    <path fill="none" stroke="currentColor" stroke-width="14" stroke-linecap="round" stroke-linejoin="round" d="m 900.77242,1459.4377 c -47.4783,-16.4417 -50.49394,-41.655 -42.0727,-69.1245 -5.00316,-44.2022 12.99439,-69.9049 25.61382,-99.9333"/>
    <path fill="none" stroke="currentColor" stroke-width="14" stroke-linecap="round" stroke-linejoin="round" d="m 880.07021,1492.0329 c 37.31879,-25.3875 87.15834,-4.1283 103.66007,-80.7633 2.91711,-24.4351 19.64172,-53.2755 -18.67883,-109.5321"/>
    <path fill="none" stroke="currentColor" stroke-width="14" stroke-linecap="round" stroke-linejoin="round" d="m 606.23393,1524.864 c 99.02409,-85.9469 172.02834,-36.3048 245.03639,13.3176 19.71548,24.4648 39.00218,48.9286 66.00522,73.4125 82.68875,79.4673 67.13536,133.3979 19.24995,178.9242 -29.84537,33.1112 -58.42875,65.5954 -73.47886,91.3573 -17.24935,17.7605 -33.10813,31.3853 -46.57827,37.9063 -63.74291,28.6227 -88.0802,-11.2972 -123.86212,-31.3103 -128.55767,-67.7582 -174.59572,-162.1446 -141.51557,-282.0615 3.64422,-46.2322 25.38846,-69.0667 55.14326,-81.5461 z"/>
    <path fill="none" stroke="currentColor" stroke-width="14" stroke-linecap="round" stroke-linejoin="round" d="m 806.19637,1539.4721 c -9.68858,11.3739 -22.61998,12.9338 -25.47002,45.0038 4.37958,32.8755 -13.67688,65.6922 -31.24392,98.5101 -18.16631,17.6782 -12.26911,65.5977 -17.16315,99.9554 17.79603,16.9616 35.63597,17.1522 53.48038,15.6331 l 33.72527,29.6658"/>
    <path fill="none" stroke="currentColor" stroke-width="14" stroke-linecap="round" stroke-linejoin="round" d="m 621.45397,1629.1295 c -20.79932,-96.421 29.39171,-85.7501 56.62544,-109.7112 47.31304,-11.3761 86.94517,-39.0778 166.15237,17.3364 58.99147,82.0879 41.35463,128.1713 48.80888,186.0439 3.6421,55.2561 -12.94756,88.8389 -35.48032,102.7244 -5.60747,29.8063 -4.28339,58.3302 -53.74218,84.3666 -42.09006,37.5297 -71.67207,5.2489 -102.76862,-18.5789 -46.82508,-12.5861 -54.34658,-43.3508 -53.29601,-86.0554 -95.29072,-41.4411 -42.00677,-119.7015 -26.29956,-176.1258 z"/>
    <path fill="none" stroke="currentColor" stroke-width="14" stroke-linecap="round" stroke-linejoin="round" d="m 639.73058,1641.8535 c 12.07422,13.0861 21.09011,28.1996 54.85933,26.9043 19.25534,-2.4641 38.50749,-3.7069 57.72416,8.6018"/>
    <path fill="none" stroke="currentColor" stroke-width="14" stroke-linecap="round" stroke-linejoin="round" d="m 852.37641,1653.6778 c -36.90062,6.3442 -91.44255,3.8098 -101.47079,23.6781"/>
  </g>
</svg>