<svg xmlns="http://www.w3.org/2000/svg" viewBox="456.7 3141.6 572.1 1000.1" width="60" height="80" preserveAspectRatio="xMidYMid meet">
  <g transform="scale(1,-1) translate(0,-7283.3)">
    <path fill="none" stroke="currentColor" stroke-width="14" stroke-linecap="round" stroke-linejoin="round" d="m 742.85688,3522.7152 c -9.57112,-20.7871 -20.47298,-40.9132 -48.13803,-52.7125 -3.81753,-11.7678 -16.80463,-16.4422 -41.34757,-12.1772"/>
    <path fill="none" stroke="currentColor" stroke-width="14" stroke-linecap="round" stroke-linejoin="round" d="m 665.07685,3596.6497 c 14.52737,-6.9312 14.68835,-19.0357 58.66111,-15.3637 10.63582,-1.3773 21.26858,-1.5802 31.93932,-16.2957 l 23.31415,-14.5942 19.87266,-17.1894 c 15.5059,-16.8558 19.10186,-35.0665 13.93524,-54.2741 -2.72407,-21.309 -7.07936,-47.0028 -3.31511,-50.8709 2.04722,-13.2116 -2.03056,-34.6345 -6.74757,-56.9144 2.16431,-28.7559 22.56243,-24.7504 -4.03499,-105.1834 -1.7323,-17.1466 -10.79646,-25.9155 -27.51841,-25.9342 -13.60943,-2.6793 -17.26674,-8.9504 -34.42396,-22.504 -12.19351,-7.2158 -18.49979,-14.4163 -45.63308,-21.6712 -20.69659,2.6219 -41.3683,-4.259 -62.1026,12.7685 l -36.29254,32.6637 c -29.26143,24.254 -32.39519,37.7016 -34.61579,50.7716 -8.13158,19.519 -4.95524,39.0676 -1.8776,58.616 0.68869,16.6606 6.42405,30.4548 23.17647,37.9918 -8.0462,9.5862 -17.07553,14.189 -20.80919,45.6354 -8.58919,54.6074 4.61698,68.6049 13.55608,90.553 17.46236,25.3767 34.94112,44.4883 52.4145,65.6547"/>
    <path fill="none" stroke="currentColor" stroke-width="14" stroke-linecap="round" stroke-linejoin="round" d="m 800.35802,3621.1419 c 20.1324,-6.2601 42.26093,5.8837 64.60304,19.9968 l 30.08203,34.5616 c 21.19477,20.1705 30.08122,40.3088 28.2902,60.4191 -1.92622,35.0526 7.40492,70.1346 30.75904,105.2533 14.9394,43.0934 24.69305,84.7316 -1.16675,116.3767 -15.79251,28.7293 -34.98625,56.0878 -73.47422,75.6699 -40.24293,16.5996 -75.72223,39.1857 -124.25712,45.3645 -31.72407,2.4545 -57.48756,12.9 -108.59323,-10.6291 l -69.70548,-46.7344 c -11.73584,-8.5918 -22.91453,-13.4018 -41.20539,-66.4874 -5.98417,-49.3235 -28.95656,-96.5687 -1.33143,-150.004 l 44.23168,-101.6087 c 20.91367,-26.1165 34.79678,-54.8105 79.49965,-72.2059 26.05479,-8.4072 43.54618,-21.5145 93.14827,-16.9976 z"/>
    <path fill="none" stroke="currentColor" stroke-width="14" stroke-linecap="round" stroke-linejoin="round" d="m 870.92104,3669.6027 c 10.63181,22.1543 27.18692,44.3242 27.41234,66.4513 5.37109,44.6558 19.82972,75.7573 34.20278,106.9864 8.40174,21.7718 21.43263,37.9158 10.12588,83.6475 -8.0248,28.683 -15.49587,57.6263 -57.08143,70.5405 l -71.63498,31.7091 c -20.4078,9.6026 -48.11046,8.2006 -77.59722,4.1072 -28.70872,-10.3178 -57.44562,-9.8725 -86.07571,-50.2255 -6.16145,-12.0555 -9.77929,-29.1651 -6.7408,-59.5006"/>
    <path fill="none" stroke="currentColor" stroke-width="14" stroke-linecap="round" stroke-linejoin="round" d="m 795.04569,3674.5765 c -10.25523,25.894 -16.55353,50.2878 -41.59357,81.7879 10.18643,33.711 24.75653,45.7982 39.50608,57.0002 3.67656,9.5172 9.62887,4.8623 6.75209,55.1902 3.60832,48.2866 35.07664,64.9008 53.19532,96.6914"/>
    <path fill="none" stroke="currentColor" stroke-width="14" stroke-linecap="round" stroke-linejoin="round" d="m 647.52633,3714.7076 c 24.5979,29.0842 58.27697,45.5248 105.92353,42.5189"/>
    <path fill="none" stroke="currentColor" stroke-width="14" stroke-linecap="round" stroke-linejoin="round" d="m 835.40933,3733.303 c -21.40021,24.1177 -42.62391,48.2888 -41.5868,79.2018"/>
    <path fill="none" stroke="currentColor" stroke-width="14" stroke-linecap="round" stroke-linejoin="round" d="m 888.71072,3789.4772 c -26.61666,41.0548 -58.95771,38.3016 -89.77899,47.1789"/>
  </g>
</svg>