<svg xmlns="http://www.w3.org/2000/svg" viewBox="2849.9 2746.8 279.3 458.1" width="60" height="80" preserveAspectRatio="xMidYMid meet">
  <g transform="scale(1,-1) translate(0,-5951.6)">
    <path fill="none" stroke="currentColor" stroke-width="14" stroke-linecap="round" stroke-linejoin="round" d="m 2935.8129,2848.9116 c 34.9918,-52.1599 74.0456,-28.9701 113.8131,7.4607 22.6049,27.1505 29.5907,55.7621 26.9474,85.2746 -0.9732,17.7247 -8.6827,29.7059 -25.7739,33.6882 11.2794,6.3051 15.7872,18.0565 15.6052,33.58 l -15.2825,89.6955 c -14.5702,36.9611 -26.142,36.7653 -38.6666,48.3772 -6.6838,3.3823 -13.452,6.6808 -22.3934,7.8173 -12.3673,-4.1705 -24.7303,-6.7262 -37.1794,-42.1442 10.5264,-3.3744 -33.1939,-20.1909 -1.002,-53.4458 10.3687,-11.34 -24.6887,-48.0946 -4.5157,-78.4367 10.324,-33.3846 20.1559,-62.2322 28.2518,-75.0743 -21.7951,-3.5448 -15.2899,-23.3597 -22.5062,-35.286"/>
    <path fill="none" stroke="currentColor" stroke-width="14" stroke-linecap="round" stroke-linejoin="round" d="m 3001.4608,2898.7399 -25.8439,6.9642"/>
    <path fill="none" stroke="currentColor" stroke-width="14" stroke-linecap="round" stroke-linejoin="round" d="m 2899.9334,2974.006 c 13.6959,6.1675 25.5499,16.6639 45.7098,7.6389"/>
    <path fill="none" stroke="currentColor" stroke-width="14" stroke-linecap="round" stroke-linejoin="round" d="m 3013.7284,2974.5701 c -21.3867,-4.1252 -44.9347,-16.8008 -62.0801,-4.1478"/>
  </g>
</svg>