<svg xmlns="http://www.w3.org/2000/svg" viewBox="2713.4 2156.4 564.6 583.6" width="60" height="80" preserveAspectRatio="xMidYMid meet">
  <g>
    <path fill="none" stroke="currentColor" stroke-width="14" stroke-linecap="round" stroke-linejoin="round" d="m 3001.5508,2260.6 -14.1177,-12.6391 c 3.9094,-36.1387 -3.2606,-41.5588 -14.1803,-36.5827"/>
    <path fill="none" stroke="currentColor" stroke-width="14" stroke-linecap="round" stroke-linejoin="round" d="m 3002.6031,2303.9073 c -57.484,5.2531 -109.322,18.9307 -144.2348,50.3778 -49.8417,25.7602 -81.6409,52.7618 -79.0106,82.132 -15.9535,44.7675 -3.5367,77.2882 5.8074,111.1354 l 26.554,55.5645 c 16.7962,32.3393 51.5066,53.8661 105.8006,63.573 63.9169,10.5949 127.8392,23.3026 191.6332,-13.0605 72.6301,-27.0927 76.0863,-65.5284 83.0629,-103.3868 21.4356,-38.8354 35.7877,-85.5981 27.2862,-157.9358 -7.5327,-33.0664 -17.106,-75.103 -63.9796,-94.3164 -46.8735,-19.2134 -88.9027,-9.2449 -152.9193,5.9168 z"/>
    <path fill="none" stroke="currentColor" stroke-width="14" stroke-linecap="round" stroke-linejoin="round" d="m 3173.6503,2362.9667 c 53.366,75.7374 16.8017,109.1032 -5.2429,149.3101 5.9989,68.1628 4.2056,120.5674 -41.9547,114.1947 -68.0551,48.4926 -117.6872,22.4645 -171.7935,14.5343 -7.76,-12.313 -8.2527,-28.2836 -29.6659,-33.7253 0,0 -47.6566,-102.223 -53.8307,-118.1693 -6.174,-15.9463 -11.154,-45.5109 20.9239,-77.5198 0,0 49.6301,-51.8636 81.5166,-66.4109 15.1677,-6.9198 33.0283,-4.8332 49.2735,-8.5797 33.3047,-7.6807 98.5174,-28.427 98.5174,-28.427 31.247,-6.9064 50.6805,9.278 52.2563,54.7929 z"/>
    <path fill="none" stroke="currentColor" stroke-width="14" stroke-linecap="round" stroke-linejoin="round" d="m 3024.8061,2374.353 c -5.0957,12.6051 -7.8121,24.728 1.1569,34.4819"/>
    <path fill="none" stroke="currentColor" stroke-width="14" stroke-linecap="round" stroke-linejoin="round" d="m 2975.1332,2391.6556 c 22.4501,6.6093 50.9626,12.192 52.1715,22.3987"/>
  </g>
</svg>