<svg xmlns="http://www.w3.org/2000/svg" viewBox="2669.3 1736.2 557.0 635.6" width="60" height="80" preserveAspectRatio="xMidYMid meet">
  <g>
    <path fill="none" stroke="currentColor" stroke-width="14" stroke-linecap="round" stroke-linejoin="round" d="m 2966.5386,1798.7183 c -37.5769,17.0061 -53.4954,-0.8439 -73.2723,-12.4843"/>
    <path fill="none" stroke="currentColor" stroke-width="14" stroke-linecap="round" stroke-linejoin="round" d="m 2935.6892,1850.9119 -17.0377,-52.0682"/>
    <path fill="none" stroke="currentColor" stroke-width="14" stroke-linecap="round" stroke-linejoin="round" d="m 2973.9422,1936.7276 c -5.3748,11.7512 -10.6005,23.502 -19.626,35.2627 -10.0222,7.4989 -14.2565,23.6304 -16.7908,42.2976"/>
    <path fill="none" stroke="currentColor" stroke-width="14" stroke-linecap="round" stroke-linejoin="round" d="m 3096.5102,1949.0828 c -54.6271,-118.082 -144.011,-24.2032 -230.845,54.1256 -17.7694,21.3551 -40.3308,34.7707 -47.6954,73.3646 -26.7653,68.0498 39.6068,106.8047 70.8242,153.3362 31.2174,46.5315 63.449,69.7361 119.8543,51.7991 131.9044,-48.6206 136.9443,-112.3756 116.4327,-179.1787 41.6553,-98.8742 13.44,-104.0777 2.4703,-132.4013 -10.3436,-5.7086 -20.6793,-8.4043 -31.0411,-21.0455 z"/>
    <path fill="none" stroke="currentColor" stroke-width="14" stroke-linecap="round" stroke-linejoin="round" d="m 3074.0046,1960.4093 c -18.9576,0.8084 -37.9502,1.5819 -42.2092,17.012 -24.0171,17.7701 -48.1062,35.5935 -74.5038,55.1248"/>
    <path fill="none" stroke="currentColor" stroke-width="14" stroke-linecap="round" stroke-linejoin="round" d="m 2886.7956,2004.5616 c 13.2654,7.2095 22.8307,7.0668 32.4127,6.9574 25.5895,-3.7984 36.3429,9.8041 39.5212,32.291 0.34,14.1392 -3.4362,29.6624 18.4057,36.5717 18.8205,17.1639 9.4315,25.0066 7.1344,35.1927 0.5113,15.9821 1.0089,26.7081 1.5007,35.2074 0.4317,57.3695 -15.2831,56.1398 -25.153,76.1225 -5.9468,6.4783 -13.298,12.4927 -8.3916,22.5572 l -11.2418,9.8887"/>
    <path fill="none" stroke="currentColor" stroke-width="14" stroke-linecap="round" stroke-linejoin="round" d="m 3109.5512,2088.4857 -54.9109,7.1861 c -20.6549,8.9116 -42.2914,14.904 -70.4186,1.5928"/>
    <path fill="none" stroke="currentColor" stroke-width="14" stroke-linecap="round" stroke-linejoin="round" d="m 3156.0668,2102.4485 c 20.1587,-27.6241 17.5224,-67.8341 3.9267,-114.0952 -51.8795,-118.8306 -145.0827,-144.4413 -290.28,-52.7613 -45.5441,18.3844 -81.6494,53.7355 -105.4011,89.0086 -23.3643,34.6979 -45.0567,51.4003 -33.5077,112.7642 26.6653,103.3668 72.7243,184.4521 203.2587,168.4825 51.865,-6.3091 97.6669,7.2725 163.2654,-44.0895 25.3932,-42.0306 74.3256,-39.2311 58.738,-159.3093 z"/>
    <path fill="none" stroke="currentColor" stroke-width="14" stroke-linecap="round" stroke-linejoin="round" d="m 2984.2844,2121.2082 -29.5848,-2.7395 c -13.1219,9.051 -26.2533,14.4364 -39.3848,19.8215"/>
  </g>
</svg>