<svg xmlns="http://www.w3.org/2000/svg" viewBox="668.2 3982.2 421.2 422.0" width="60" height="80" preserveAspectRatio="xMidYMid meet">
  <g transform="scale(1,-1) translate(0,-8386.4)">
    <path fill="none" stroke="currentColor" stroke-width="14" stroke-linecap="round" stroke-linejoin="round" d="m 874.20223,4062.716 c -18.43021,3.7066 -40.75147,6.4503 -48.39982,47.2873 0.15647,17.7603 -5.54429,31.5936 -12.18629,44.7958 -8.02152,42.5836 12.93348,70.7736 31.63465,100.0832 14.5199,24.5049 32.4894,26.9555 49.91406,32.8894 19.00332,10.044 33.26039,3.31 43.15296,-18.8526 6.05071,-12.649 7.30217,-31.3294 21.63967,-33.5642 6.4761,-11.423 7.33369,-20.9895 6.97552,-30.1542 -8.15316,-15.3074 -1.54432,-36.4747 1.00876,-56.0321 -33.45893,-1.6818 -41.68277,-28.467 -45.53377,-59.6021 -15.56775,-5.8959 -30.50709,-7.9595 -48.20574,-26.8505 z"/>
    <path fill="none" stroke="currentColor" stroke-width="14" stroke-linecap="round" stroke-linejoin="round" d="m 953.50553,4065.5099 c 84.62957,42.063 83.39647,64.6805 85.95387,96.7771 -6.4067,38.4417 -4.6963,52.7427 -4.4977,71.5402 1.1438,39.5169 -23.4696,49.9037 -38.97802,70.5878 -49.73286,49.7603 -76.22733,33.6785 -111.31711,41.9501 -32.26832,-4.9695 -51.93089,-9.9061 -70.65104,-14.8402 -52.62222,-12.7728 -48.02348,-32.5462 -67.97457,-49.316 -25.57933,-34.3251 -27.82802,-78.1855 -14.31885,-128.4862 11.07842,-29.9238 33.56092,-52.3027 57.09045,-73.9888 l 57.83516,-29.159 c 44.40002,-18.3587 95.26665,6.8433 106.85781,14.935 z"/>
    <path fill="none" stroke="currentColor" stroke-width="14" stroke-linecap="round" stroke-linejoin="round" d="m 902.58496,4087.7904 2.52301,24.1447"/>
  </g>
</svg>