<svg xmlns="http://www.w3.org/2000/svg" viewBox="497.8 2746.3 279.3 458.1" width="60" height="80" preserveAspectRatio="xMidYMid meet">
  <g transform="scale(1,-1) translate(0,-5950.6)">
    <path fill="none" stroke="currentColor" stroke-width="14" stroke-linecap="round" stroke-linejoin="round" d="m 691.17367,2848.4396 c -34.99181,-52.1599 -74.04552,-28.9701 -113.81302,7.4607 -22.60493,27.1505 -29.59077,55.7621 -26.94748,85.2746 0.9732,17.7247 8.68277,29.7059 25.77396,33.6883 -11.27941,6.305 -15.7872,18.0564 -15.60521,33.5799 l 15.28248,89.6955 c 14.57023,36.9611 26.14197,36.7653 38.66658,48.3772 6.68386,3.3823 13.45197,6.6808 22.39341,7.8173 12.36728,-4.1705 24.73033,-6.7262 37.17942,-42.1442 -10.52639,-3.3744 33.19385,-20.1909 1.00199,-53.4458 -10.36868,-11.34 24.68871,-48.0946 4.51571,-78.4367 -10.324,-33.3846 -20.1559,-62.2321 -28.25183,-75.0742 21.79511,-3.5449 15.28997,-23.3598 22.50625,-35.2861"/>
    <path fill="none" stroke="currentColor" stroke-width="14" stroke-linecap="round" stroke-linejoin="round" d="m 625.52576,2898.2679 25.84392,6.9643"/>
    <path fill="none" stroke="currentColor" stroke-width="14" stroke-linecap="round" stroke-linejoin="round" d="m 727.0532,2973.534 c -13.69586,6.1675 -25.54989,16.664 -45.70981,7.639"/>
    <path fill="none" stroke="currentColor" stroke-width="14" stroke-linecap="round" stroke-linejoin="round" d="m 613.25823,2974.0981 c 21.38663,-4.1252 44.93465,-16.8008 62.08003,-4.1478"/>
  </g>
</svg>