<svg xmlns="http://www.w3.org/2000/svg" viewBox="741.7 629.9 542.2 658.1" width="60" height="80" preserveAspectRatio="xMidYMid meet">
  <g>
    <path fill="none" stroke="currentColor" stroke-width="14" stroke-linecap="round" stroke-linejoin="round" d="m 1087.7131,877.91927 c 71.1713,86.13193 23.9636,73.39337 -52.6808,36.06911"/>
    <path fill="none" stroke="currentColor" stroke-width="14" stroke-linecap="round" stroke-linejoin="round" d="m 996.27096,901.81789 c 2.56829,-58.38742 7.47644,-113.78078 34.85054,-140.42648 27.0868,-28.37645 61.9381,-48.94777 109.6313,-56.60973"/>
    <path fill="none" stroke="currentColor" stroke-width="14" stroke-linecap="round" stroke-linejoin="round" d="m 883.20038,954.97033 c -81.5943,28.41483 -86.9583,67.62067 -87.35078,107.53027 -4.15066,175.5425 144.86273,172.5709 173.72207,159.0761 45.40333,5.6227 76.93663,0.3992 101.75083,-10.0785 46.3335,-3.5547 68.651,-31.2515 76.0559,-73.9391 6.7825,-22.9142 9.0947,-48.0781 -2.3763,-80.1789 -8.3857,-17.9293 -2.6833,-35.1172 -54.1657,-55.3144 -54.2861,-5.98353 -71.4704,-19.75252 -93.8749,-34.72863 -32.22771,-34.97281 -72.31662,-27.34303 -113.76112,-12.36684 z"/>
    <path fill="none" stroke="currentColor" stroke-width="14" stroke-linecap="round" stroke-linejoin="round" d="m 960.78632,955.17345 c 0.36675,8.62168 6.63025,17.2588 -14.72283,25.82362 -36.97841,29.98443 -34.47533,52.17993 -26.05381,73.20793 17.121,32.5286 11.01563,47.9309 -6.1789,55.1564 -53.32825,51.7257 -41.18154,62.3383 -55.40695,89.5104"/>
    <path fill="none" stroke="currentColor" stroke-width="14" stroke-linecap="round" stroke-linejoin="round" d="m 1029.7313,963.1126 c -54.04551,-18.03069 -79.35465,-51.01802 -85.09854,-94.18863 -6.67722,-42.21018 0.69596,-83.37978 26.18471,-123.20773 22.2889,-62.02568 44.40643,-58.59101 66.54383,-62.75704 19.7474,2.49038 37.6952,1.35801 55.1745,-0.71763 52.834,-2.34103 72.5151,21.61881 85.2475,37.29227 44.5828,59.69905 39.6605,94.4833 50.503,137.20166 5.5775,47.16841 3.1173,87.49959 -20.9762,109.42821 -73.3066,54.82809 -85.7676,27.96255 -116.4466,25.55731 -57.13,-24.06183 -42.4358,-19.73665 -61.1322,-28.60842 z"/>
    <path fill="none" stroke="currentColor" stroke-width="14" stroke-linecap="round" stroke-linejoin="round" d="m 1095.9704,1016.7345 c 15.9666,35.6213 0.074,64.8017 3.2113,90.5259 2.9741,35.8594 -7.6638,66.3841 -45.9152,86.087 -23.5207,13.2456 -52.0628,15.9479 -77.63328,17.9003"/>
    <path fill="none" stroke="currentColor" stroke-width="14" stroke-linecap="round" stroke-linejoin="round" d="m 1020.9572,1021.7105 c -22.73748,20.9083 -25.03313,31.6625 -25.10828,41.3137"/>
    <path fill="none" stroke="currentColor" stroke-width="14" stroke-linecap="round" stroke-linejoin="round" d="m 1075.2267,1037.3699 c -65.132,6.5321 -86.08379,23.2468 -77.70104,43.7622 -0.17522,54.1233 16.98974,41.2802 29.15674,58.6973"/>
  </g>
</svg>